<svg width="110" height="36" viewBox="0 0 110 36" fill="none" xmlns="http://www.w3.org/2000/svg">
<path d="M12.7866 15.0965H8.80466L3.77409 6.57804V15.0965H-0.00012207V0.899902H3.98177L9.01491 9.41835V0.899902H12.7866V15.0965Z" fill="#B3EF67"/>
<path d="M26.3554 15.0965H14.7225V0.899902H26.3554V3.74021H18.4967V6.46889H24.6786V9.31665H18.4967V12.2562H26.3554V15.0965Z" fill="#B3EF67"/>
<path d="M40.0903 0.899902L42.6055 10.0261L44.8055 0.899902H48.8925L44.9106 15.0965H40.9287L38.4134 6.27541L35.8956 15.0965H31.9137L27.9318 0.899902H32.0188L34.2187 10.0261L36.7365 0.899902H40.0903Z" fill="#B3EF67"/>
<path d="M69.769 14.8931C66.6529 15.156 64.0675 15.2916 62.0129 15.2999C60.6454 15.2999 59.6395 14.989 58.9951 14.3672C58.3507 13.7454 58.0293 12.7713 58.031 11.445V4.95572C58.031 3.53681 58.3626 2.5057 59.0258 1.86239C59.6891 1.21908 60.7548 0.898255 62.2232 0.899909H69.769V3.74022H63.0744C62.2368 3.74022 61.8172 4.14539 61.8155 4.95572V11.445C61.8074 11.5813 61.8286 11.7178 61.8775 11.8458C61.9265 11.9739 62.0023 12.0908 62.1001 12.1892C62.1946 12.2789 62.307 12.3491 62.4304 12.3956C62.5538 12.442 62.6857 12.4638 62.818 12.4596C63.1103 12.4596 63.4334 12.4596 63.7821 12.4596L64.8718 12.4298L66.0153 12.3877C66.3999 12.3744 66.8956 12.348 67.5024 12.3083C68.1092 12.2686 68.8673 12.2206 69.7767 12.1644L69.769 14.8931Z" fill="#B3EF67"/>
<path d="M78.9329 15.0965H71.3871V12.2562H73.2742V3.74021H71.3871V0.899902H78.9329V3.74021H77.0458V12.2562H78.9329V15.0965Z" fill="#B3EF67"/>
<path d="M88.6885 15.0965H84.9143V3.74021H80.5093V0.899902H93.0858V3.74021H88.6885V15.0965Z" fill="#B3EF67"/>
<path d="M94.6267 0.899902H98.6112L102.07 7.79603L105.529 0.899902H109.511L103.957 11.3433V15.0965H100.183V11.3433L94.6267 0.899902Z" fill="#B3EF67"/>
<path d="M18.4893 34.8965H14.3997L19.9559 20.7H24.1481L29.7017 34.8965H25.6147L24.6788 32.3589H19.4303L18.4893 34.8965ZM20.3738 29.7244H23.7276L22.0507 24.9592L20.3738 29.7244Z" fill="#B3EF67"/>
<path d="M31.4424 20.7H40.2472C41.7138 20.7 42.7796 21.0208 43.4445 21.6624C44.1095 22.3041 44.4411 23.3352 44.4394 24.7558V26.5815C44.4394 27.7027 44.2471 28.5751 43.8625 29.1986C43.6605 29.5153 43.3936 29.7888 43.0784 30.0021C42.7631 30.2154 42.4061 30.364 42.0292 30.4389L44.6496 34.904H40.5754L38.1652 30.6448H35.2166V34.8965H31.4424V20.7ZM40.6729 24.7558C40.6729 23.9438 40.2532 23.5386 39.4139 23.5403H35.2166V27.797H39.4088C40.2464 27.797 40.666 27.3918 40.6677 26.5815L40.6729 24.7558Z" fill="#B3EF67"/>
<path d="M54.5645 34.8965H50.7903V23.5403H46.3905V20.7H58.9669V23.5403H54.5645V34.8965Z" fill="#B3EF67"/>
<path d="M68.1488 34.8965H60.6029V32.0562H62.49V23.5403H60.6029V20.7H68.1488V23.5403H66.2617V32.0562H68.1488V34.8965Z" fill="#B3EF67"/>
<path d="M69.8233 31.9545C73.654 32.1579 76.247 32.2596 77.6025 32.2596C77.7429 32.2701 77.8839 32.251 78.0159 32.2037C78.1479 32.1564 78.2678 32.0819 78.3672 31.9855C78.4666 31.8891 78.5432 31.773 78.5918 31.6452C78.6404 31.5173 78.6598 31.3808 78.6486 31.2451V29.4218H73.8283C72.3617 29.4218 71.2959 29.1002 70.631 28.4569C69.9661 27.8135 69.6345 26.7824 69.6362 25.3635V24.7558C69.6362 23.3369 69.9678 22.3057 70.631 21.6624C71.2942 21.0191 72.36 20.6983 73.8283 20.7H81.187V23.5403H74.677C73.8394 23.5403 73.4198 23.9454 73.4181 24.7558V25.1651C73.4181 25.9771 73.8377 26.3822 74.677 26.3806H78.4512C79.8187 26.3806 80.8246 26.6915 81.469 27.3133C82.1135 27.9351 82.4348 28.9092 82.4331 30.2355V31.2476C82.4331 32.5706 82.1117 33.5446 81.469 34.1697C80.8263 34.7948 79.8204 35.1057 78.4512 35.1024C77.7384 35.1024 76.982 35.0876 76.1872 35.0603L74.2565 34.9809C72.8309 34.9114 71.3566 34.8163 69.8336 34.6956L69.8233 31.9545Z" fill="#B3EF67"/>
<path d="M91.0867 34.8965H87.3227V23.5403H82.9203V20.7H95.4993V23.5403H91.0867V34.8965Z" fill="#B3EF67"/>
</svg>
