<svg width="212" height="39" viewBox="0 0 212 39" fill="none" xmlns="http://www.w3.org/2000/svg">
<path d="M78.202 20.6917H73.9836V22.6417H78.202V20.6917Z" fill="#E7E7E7"/>
<path d="M73.1184 25.6751H77.3368L78.2021 23.7251H73.9837L73.1184 25.6751Z" fill="#E7E7E7"/>
<path d="M11.7897 7.3667H6.5979V10.1834H9.73464L10.2755 12.675L11.3571 11.7L10.4918 10.1834H11.7897V7.3667Z" fill="#E7E7E7"/>
<path d="M67.0613 7.3667H72.2531V10.1834H69.1164L68.5756 12.675L67.4939 11.7L68.3592 10.1834H67.0613V7.3667Z" fill="#E7E7E7"/>
<path d="M33.2062 7.58333H45.1041L46.0776 9.96666L65.547 10.9417L59.0572 0H19.0368L12.7633 10.9417L32.2327 9.96666L33.2062 7.58333Z" fill="#E7E7E7"/>
<path d="M32.7734 10.9416H45.5367L44.4551 8.44995H33.6387L32.7734 10.9416Z" fill="#E7E7E7"/>
<path d="M6.27342 33.2582H31.5836V31.7416H46.7265V33.2582H72.0367L76.3632 28.7083H72.1448L70.1979 30.6583H8.32851L6.38158 28.7083H2.16321L6.27342 33.2582Z" fill="#E7E7E7"/>
<path d="M0 22.6417H4.21837V20.6917H0V22.6417Z" fill="#E7E7E7"/>
<path d="M5.08367 25.6751H0.865309L0 23.7251H4.21837L5.08367 25.6751Z" fill="#E7E7E7"/>
<path d="M46.6184 38.9999H68.1429H70.198L71.6041 37.5916V36.3999V34.45H68.1429V36.3999H46.6184" fill="#E7E7E7"/>
<path d="M31.5836 36.3999H10.0591V34.45H6.5979V36.3999V37.5916L8.00403 38.9999H10.1673H31.6918" fill="#E7E7E7"/>
<path d="M45.7531 32.6084H32.3408V39.0001H45.7531V32.6084Z" fill="#E7E7E7"/>
<path d="M70.9551 18.2H7.35509L6.05713 19.4999L7.35509 27.1916L8.76121 28.5999H69.549L70.9551 27.1916L72.2531 19.4999L70.9551 18.2ZM15.6837 19.3916H62.5184V20.2583H15.6837V19.3916ZM61.2204 22.9666V23.8333H40.2367V24.7H61.7612V25.5666H16.6571V24.7H38.0735V23.8333H17.0898V22.9666H38.0735V22.0999H16.6571V21.2333H61.7612V22.0999H40.3449V22.9666H61.2204ZM11.8979 27.0833C11.1408 27.0833 10.3837 26.8666 9.84284 26.4333C9.30203 25.9999 8.76122 25.4583 8.43673 24.7C8.11224 24.05 8.11223 23.2916 8.22039 22.5333C8.32856 21.775 8.76121 21.1249 9.30203 20.5833C9.84284 20.0416 10.4918 19.7166 11.249 19.4999C12.0061 19.3916 12.7633 19.3916 13.4122 19.7166C14.0612 20.0416 14.7102 20.4749 15.1428 21.1249C15.5755 21.7749 15.7918 22.5333 15.7918 23.1833C15.7918 24.1583 15.3592 25.1333 14.7102 25.8916C13.8449 26.7583 12.8714 27.0833 11.8979 27.0833ZM62.5184 27.1916H15.6837V26.325H62.5184V27.1916ZM66.3041 27.0833C65.5469 27.0833 64.7898 26.8666 64.249 26.4333C63.6 25.9999 63.1673 25.4583 62.8428 24.7C62.5184 24.05 62.5183 23.2916 62.6265 22.5333C62.7347 21.775 63.1673 21.1249 63.7081 20.5833C64.249 20.0416 64.8979 19.7166 65.6551 19.4999C66.4122 19.3916 67.1694 19.3916 67.8183 19.7166C68.4673 20.0416 69.1163 20.4749 69.549 21.1249C69.9816 21.7749 70.1979 22.5333 70.1979 23.1833C70.1979 24.1583 69.7653 25.1333 69.1163 25.8916C68.251 26.7583 67.3857 27.0833 66.3041 27.0833Z" fill="#E7E7E7"/>
<path d="M103.296 16.3583H98.8613L93.2368 6.82502V16.3583H89.0184V0.43335H93.4531L99.0776 9.96668V0.43335H103.296V16.3583Z" fill="#E7E7E7"/>
<path d="M118.547 16.3583H105.459V0.43335H118.547V3.57502H109.678V6.60835H116.6V9.85835H109.678V13.1083H118.547V16.3583Z" fill="#E7E7E7"/>
<path d="M134.014 0.43335L136.827 10.725L139.314 0.43335H143.857L139.422 16.3583H134.988L132.176 6.39168L129.363 16.3583H124.82L120.386 0.43335H124.929L127.416 10.725L130.229 0.43335H134.014Z" fill="#E7E7E7"/>
<path d="M167.329 16.1417C163.867 16.4667 160.947 16.575 158.676 16.575C157.161 16.575 155.971 16.25 155.322 15.4917C154.565 14.8417 154.241 13.65 154.241 12.2417V4.98335C154.241 3.35835 154.565 2.27502 155.322 1.51668C156.08 0.75835 157.269 0.43335 158.892 0.43335H167.329V3.57502H159.865C158.892 3.57502 158.459 4.00835 158.459 4.98335V12.2417C158.459 12.35 158.459 12.5667 158.567 12.675C158.676 12.7833 158.676 13 158.784 13.1083C158.892 13.2167 159 13.325 159.108 13.325C159.216 13.325 159.433 13.4333 159.541 13.4333C159.865 13.4333 160.19 13.4333 160.622 13.4333H161.812H163.11C163.543 13.4333 164.084 13.4334 164.733 13.325C165.382 13.325 166.247 13.2167 167.329 13.2167V16.1417Z" fill="#E7E7E7"/>
<path d="M177.604 16.3584H169.167V13.2167H171.331V3.68342H169.167V0.541748H177.604V3.68342H175.441V13.2167H177.604V16.3584Z" fill="#E7E7E7"/>
<path d="M188.529 16.3583H184.31V3.57502H179.335V0.43335H193.396V3.57502H188.42V16.3583H188.529Z" fill="#E7E7E7"/>
<path d="M195.235 0.43335H199.669L203.563 8.23335L207.457 0.43335H211.892L205.618 12.1333V16.3583H201.4V12.1333L195.235 0.43335Z" fill="#E7E7E7"/>
<path d="M118.655 24.2668C117.79 23.4001 116.492 22.9668 114.87 22.9668H106.108V38.6751H114.87C116.6 38.6751 117.79 38.2418 118.655 37.3751C119.521 36.5085 119.953 35.2085 119.953 33.4751V28.0585C119.953 26.4335 119.521 25.1335 118.655 24.2668ZM115.951 33.5835C115.951 34.8835 115.302 35.6418 113.896 35.6418H110.11V26.2168H113.896C115.194 26.2168 115.951 26.8668 115.951 28.2751V33.5835Z" fill="#E7E7E7"/>
<path d="M134.014 33.8001C134.88 33.5834 135.529 33.1501 135.961 32.3917C136.394 31.7417 136.61 30.7667 136.61 29.4667V27.4084C136.61 25.7834 136.286 24.7001 135.529 23.9417C134.772 23.1834 133.69 22.8584 132.067 22.8584H122.657V38.5667H126.659V33.8001H129.796L132.392 38.5667H136.718L134.014 33.8001ZM132.5 29.4667C132.5 30.3334 132.067 30.7667 131.202 30.7667H126.659V26.0001H131.202C132.067 26.0001 132.5 26.4334 132.5 27.3001V29.4667Z" fill="#E7E7E7"/>
<path d="M146.669 38.6751H138.557V35.5335H140.612V26.1085H138.557V22.9668H146.669V26.1085H144.614V35.5335H146.669V38.6751Z" fill="#E7E7E7"/>
<path d="M155.755 34.0168L159.541 22.9668H163.976L158.027 38.6751H153.484L147.535 22.9668H151.969L155.755 34.0168Z" fill="#E7E7E7"/>
<path d="M177.929 38.6751H165.49V22.9668H177.929V26.1085H169.6V29.1418H176.198V32.2835H169.6V35.5335H177.929V38.6751Z" fill="#E7E7E7"/>
<path d="M191.557 33.8001C192.423 33.5834 193.071 33.1501 193.504 32.3917C193.937 31.7417 194.153 30.7667 194.153 29.4667V27.4084C194.153 25.7834 193.829 24.7001 193.071 23.9417C192.314 23.1834 191.233 22.8584 189.61 22.8584H180.2V38.5667H184.202V33.8001H187.339L189.935 38.5667H194.261L191.557 33.8001ZM190.043 29.4667C190.043 30.3334 189.61 30.7667 188.745 30.7667H184.202V26.0001H188.745C189.61 26.0001 190.043 26.4334 190.043 27.3001V29.4667Z" fill="#E7E7E7"/>
</svg>
