<svg width="196" height="36" viewBox="0 0 196 36" fill="none" xmlns="http://www.w3.org/2000/svg">
<path d="M72.3 19.1001H68.4V20.9001H72.3V19.1001Z" fill="#B3EF67"/>
<path d="M67.6 23.6999H71.5L72.3 21.8999H68.4L67.6 23.6999Z" fill="#B3EF67"/>
<path d="M10.9 6.80005H6.09998V9.40005H8.99998L9.49998 11.7L10.5 10.8L9.69997 9.40005H10.9V6.80005Z" fill="#B3EF67"/>
<path d="M62 6.80005H66.8V9.40005H63.9L63.4 11.7L62.4 10.8L63.2 9.40005H62V6.80005Z" fill="#B3EF67"/>
<path d="M30.7 7H41.7L42.6 9.2L60.6 10.1L54.6 0H17.6L11.8 10.1L29.8 9.2L30.7 7Z" fill="#B3EF67"/>
<path d="M30.3 10.1H42.1L41.1 7.80005H31.1L30.3 10.1Z" fill="#B3EF67"/>
<path d="M5.8 30.7H29.2V29.3H43.2V30.7H66.6L70.6 26.5H66.7L64.9 28.3H7.7L5.9 26.5H2L5.8 30.7Z" fill="#B3EF67"/>
<path d="M0 20.9001H3.9V19.1001H0V20.9001Z" fill="#B3EF67"/>
<path d="M4.7 23.6999H0.800003L0 21.8999H3.9L4.7 23.6999Z" fill="#B3EF67"/>
<path d="M43.1 36H63H64.9L66.2 34.7V33.6V31.8H63V33.6H43.1" fill="#B3EF67"/>
<path d="M29.2 33.6H9.29998V31.8H6.09998V33.6V34.7L7.39998 36H9.39998H29.3" fill="#B3EF67"/>
<path d="M42.3 30.1001H29.9V36.0001H42.3V30.1001Z" fill="#B3EF67"/>
<path d="M65.6 16.8H6.79998L5.59998 18L6.79998 25.1L8.09998 26.4H64.3L65.6 25.1L66.8 18L65.6 16.8ZM14.5 17.9H57.8V18.7H14.5V17.9ZM56.6 21.2V22H37.2V22.8H57.1V23.6H15.4V22.8H35.2V22H15.8V21.2H35.2V20.4H15.4V19.6H57.1V20.4H37.3V21.2H56.6ZM11 25C10.3 25 9.59998 24.8 9.09998 24.4C8.59998 24 8.09998 23.5 7.79998 22.8C7.49998 22.2 7.49998 21.5 7.59998 20.8C7.69998 20.1 8.09998 19.5 8.59998 19C9.09998 18.5 9.69998 18.2 10.4 18C11.1 17.9 11.8 17.9 12.4 18.2C13 18.5 13.6 18.9 14 19.5C14.4 20.1 14.6 20.8 14.6 21.4C14.6 22.3 14.2 23.2 13.6 23.9C12.8 24.7 11.9 25 11 25ZM57.8 25.1H14.5V24.3H57.8V25.1ZM61.3 25C60.6 25 59.9 24.8 59.4 24.4C58.8 24 58.4 23.5 58.1 22.8C57.8 22.2 57.8 21.5 57.9 20.8C58 20.1 58.4 19.5 58.9 19C59.4 18.5 60 18.2 60.7 18C61.4 17.9 62.1 17.9 62.7 18.2C63.3 18.5 63.9 18.9 64.3 19.5C64.7 20.1 64.9 20.8 64.9 21.4C64.9 22.3 64.5 23.2 63.9 23.9C63.1 24.7 62.3 25 61.3 25Z" fill="#B3EF67"/>
<path d="M95.6 15.0999H91.5L86.3 6.2999V15.0999H82.4V0.399902H86.5L91.7 9.1999V0.399902H95.6V15.0999Z" fill="#B3EF67"/>
<path d="M109.7 15.0999H97.6V0.399902H109.7V3.2999H101.5V6.0999H107.9V9.0999H101.5V12.0999H109.7V15.0999Z" fill="#B3EF67"/>
<path d="M124 0.399902L126.6 9.8999L128.9 0.399902H133.1L129 15.0999H124.9L122.3 5.8999L119.7 15.0999H115.5L111.4 0.399902H115.6L117.9 9.8999L120.5 0.399902H124Z" fill="#B3EF67"/>
<path d="M154.8 14.8999C151.6 15.1999 148.9 15.2999 146.8 15.2999C145.4 15.2999 144.3 14.9999 143.7 14.2999C143 13.6999 142.7 12.5999 142.7 11.2999V4.5999C142.7 3.0999 143 2.0999 143.7 1.3999C144.4 0.699902 145.5 0.399902 147 0.399902H154.8V3.2999H147.9C147 3.2999 146.6 3.6999 146.6 4.5999V11.2999C146.6 11.3999 146.6 11.5999 146.7 11.6999C146.8 11.7999 146.8 11.9999 146.9 12.0999C147 12.1999 147.1 12.2999 147.2 12.2999C147.3 12.2999 147.5 12.3999 147.6 12.3999C147.9 12.3999 148.2 12.3999 148.6 12.3999H149.7H150.9C151.3 12.3999 151.8 12.3999 152.4 12.2999C153 12.2999 153.8 12.1999 154.8 12.1999V14.8999Z" fill="#B3EF67"/>
<path d="M164.3 15.1H156.5V12.2H158.5V3.4H156.5V0.5H164.3V3.4H162.3V12.2H164.3V15.1Z" fill="#B3EF67"/>
<path d="M174.4 15.0999H170.5V3.2999H165.9V0.399902H178.9V3.2999H174.3V15.0999H174.4Z" fill="#B3EF67"/>
<path d="M180.6 0.399902H184.7L188.3 7.5999L191.9 0.399902H196L190.2 11.1999V15.0999H186.3V11.1999L180.6 0.399902Z" fill="#B3EF67"/>
<path d="M109.8 22.4C109 21.6 107.8 21.2 106.3 21.2H98.2V35.7H106.3C107.9 35.7 109 35.3 109.8 34.5C110.6 33.7 111 32.5 111 30.9V25.9C111 24.4 110.6 23.2 109.8 22.4ZM107.3 31C107.3 32.2 106.7 32.9 105.4 32.9H101.9V24.2H105.4C106.6 24.2 107.3 24.8 107.3 26.1V31Z" fill="#B3EF67"/>
<path d="M124 31.1999C124.8 30.9999 125.4 30.5999 125.8 29.8999C126.2 29.2999 126.4 28.3999 126.4 27.1999V25.2999C126.4 23.7999 126.1 22.7999 125.4 22.0999C124.7 21.3999 123.7 21.0999 122.2 21.0999H113.5V35.5999H117.2V31.1999H120.1L122.5 35.5999H126.5L124 31.1999ZM122.6 27.1999C122.6 27.9999 122.2 28.3999 121.4 28.3999H117.2V23.9999H121.4C122.2 23.9999 122.6 24.3999 122.6 25.1999V27.1999Z" fill="#B3EF67"/>
<path d="M135.7 35.7H128.2V32.8H130.1V24.1H128.2V21.2H135.7V24.1H133.8V32.8H135.7V35.7Z" fill="#B3EF67"/>
<path d="M144.1 31.4L147.6 21.2H151.7L146.2 35.7H142L136.5 21.2H140.6L144.1 31.4Z" fill="#B3EF67"/>
<path d="M164.6 35.7H153.1V21.2H164.6V24.1H156.9V26.9H163V29.8H156.9V32.8H164.6V35.7Z" fill="#B3EF67"/>
<path d="M177.2 31.1999C178 30.9999 178.6 30.5999 179 29.8999C179.4 29.2999 179.6 28.3999 179.6 27.1999V25.2999C179.6 23.7999 179.3 22.7999 178.6 22.0999C177.9 21.3999 176.9 21.0999 175.4 21.0999H166.7V35.5999H170.4V31.1999H173.3L175.7 35.5999H179.7L177.2 31.1999ZM175.8 27.1999C175.8 27.9999 175.4 28.3999 174.6 28.3999H170.4V23.9999H174.6C175.4 23.9999 175.8 24.3999 175.8 25.1999V27.1999Z" fill="#B3EF67"/>
</svg>
