<svg width="215" height="48" viewBox="0 0 215 48" fill="none" xmlns="http://www.w3.org/2000/svg">
<path d="M81.7204 25.2202H77.5361V27.1324H81.7204V25.2202Z" fill="white" fill-opacity="0.9"/>
<path d="M76.6416 30.1494H80.8259L81.7197 28.2383H77.5364L76.6416 30.1494Z" fill="white" fill-opacity="0.9"/>
<path d="M15.9715 12.0073H10.8524V14.7555H13.9228L14.5095 17.2514L15.5753 16.2748L14.6763 14.7555H15.9715V12.0073Z" fill="white" fill-opacity="0.9"/>
<path d="M70.6439 12.0073H75.763V14.7555H72.6926L72.1059 17.2514L71.0401 16.2748L71.939 14.7555H70.6439V12.0073Z" fill="white" fill-opacity="0.9"/>
<path d="M37.1059 12.2515H48.8899L49.8666 14.5781L69.1603 15.524L62.7779 4.7229H23.2056L16.9645 15.524L36.2326 14.5802L37.1059 12.2515Z" fill="white" fill-opacity="0.9"/>
<path d="M36.7506 15.524H49.3742L48.3453 13.0723H37.6731L36.7506 15.524Z" fill="white" fill-opacity="0.9"/>
<path d="M10.4981 37.5836L35.5251 37.5775L35.5262 36.0962H50.4738L50.4666 37.5734L75.4834 37.5672L79.7936 33.032H75.6022L73.6416 34.9421L12.3399 34.9595L10.3855 33.032H6.2063L10.4981 37.5836Z" fill="white" fill-opacity="0.9"/>
<path d="M4.27956 27.1509H8.46387V25.2387H4.27956V27.1509Z" fill="white" fill-opacity="0.9"/>
<path d="M9.35861 30.1216H5.1743L4.28052 28.2104H8.4638L9.35861 30.1216Z" fill="white" fill-opacity="0.9"/>
<path d="M50.4667 43.2771H71.7527H73.8106L75.2193 41.8994V40.7125V38.7634H71.7527V40.7125H50.4667" fill="white" fill-opacity="0.9"/>
<path d="M35.5068 40.7125H14.2453V38.7634H10.7808V40.7125V41.8656L12.1557 43.2771H14.2453H35.5068" fill="white" fill-opacity="0.9"/>
<path d="M49.6312 36.9395H36.3688V43.2771H49.6312V36.9395Z" fill="white" fill-opacity="0.9"/>
<path d="M74.5088 22.6711H11.4913L10.231 23.9483L11.4913 31.5252L12.9 32.9029H73.1L74.5088 31.5252L75.7691 23.9483L74.5088 22.6711ZM19.8015 23.9411H66.2221V24.7618H19.8015V23.9411ZM64.8747 27.3777V28.1984H44.0914V29.096H65.3529V29.9166H20.681V29.096H41.9281V28.1984H21.1284V27.3777H41.9281V26.4801H20.681V25.6594H65.3529V26.4801H44.0955V27.3777H64.8747ZM16.0646 31.5323C15.3255 31.5323 14.603 31.3127 13.9885 30.9013C13.374 30.4899 12.895 29.9051 12.6122 29.2209C12.3293 28.5367 12.2553 27.7839 12.3995 27.0575C12.5437 26.3312 12.8996 25.664 13.4222 25.1404C13.9448 24.6167 14.6107 24.2601 15.3356 24.1157C16.0605 23.9712 16.8118 24.0453 17.4947 24.3287C18.1775 24.6121 18.7611 25.092 19.1717 25.7078C19.5824 26.3235 19.8015 27.0475 19.8015 27.788C19.8015 28.7811 19.4078 29.7335 18.707 30.4356C18.0062 31.1378 17.0557 31.5323 16.0646 31.5323ZM66.2221 31.6349H19.8015V30.8142H66.2221V31.6349ZM69.959 31.5323C69.2199 31.5323 68.4974 31.3127 67.8829 30.9013C67.2683 30.4899 66.7894 29.9051 66.5065 29.2209C66.2237 28.5367 66.1497 27.7839 66.2939 27.0575C66.4381 26.3312 66.794 25.664 67.3166 25.1404C67.8392 24.6167 68.5051 24.2601 69.2299 24.1157C69.9548 23.9712 70.7062 24.0453 71.389 24.3287C72.0719 24.6121 72.6555 25.092 73.0661 25.7078C73.4767 26.3235 73.6959 27.0475 73.6959 27.788C73.6959 28.7811 73.3022 29.7335 72.6014 30.4356C71.9006 31.1378 70.9501 31.5323 69.959 31.5323Z" fill="white" fill-opacity="0.9"/>
<path d="M107.207 20.774H102.783L97.1936 11.309V20.774H93V5H97.4243L103.017 14.4649V5H107.207V20.774Z" fill="white" fill-opacity="0.9"/>
<path d="M122.284 20.774H109.358V5H122.284V8.1559H113.552V11.1878H120.421V14.3519H113.552V17.6181H122.284V20.774Z" fill="white" fill-opacity="0.9"/>
<path d="M137.545 5L140.34 15.1402L142.784 5H147.325L142.901 20.774H138.477L135.682 10.9728L132.884 20.774H128.46L124.036 5H128.577L131.021 15.1402L133.819 5H137.545Z" fill="white" fill-opacity="0.9"/>
<path d="M170.521 20.548C167.059 20.8401 164.186 20.9908 161.903 21C160.384 21 159.266 20.6546 158.55 19.9637C157.834 19.2728 157.477 18.1905 157.479 16.7168V9.50647C157.479 7.92989 157.847 6.78422 158.584 6.06943C159.321 5.35464 160.505 4.99817 162.137 5.00001H170.521V8.15591H163.083C162.152 8.15591 161.686 8.60609 161.684 9.50647V16.7168C161.675 16.8683 161.699 17.0199 161.753 17.1622C161.807 17.3044 161.892 17.4343 162 17.5437C162.105 17.6433 162.23 17.7213 162.367 17.773C162.504 17.8246 162.651 17.8488 162.798 17.8441C163.123 17.8441 163.482 17.8441 163.869 17.8441L165.08 17.811L166.35 17.7642C166.778 17.7495 167.329 17.7201 168.003 17.676C168.677 17.6319 169.519 17.5786 170.53 17.5161L170.521 20.548Z" fill="white" fill-opacity="0.9"/>
<path d="M180.703 20.774H172.318V17.6181H174.415V8.1559H172.318V5H180.703V8.1559H178.606V17.6181H180.703V20.774Z" fill="white" fill-opacity="0.9"/>
<path d="M191.543 20.774H187.349V8.1559H182.455V5H196.429V8.1559H191.543V20.774Z" fill="white" fill-opacity="0.9"/>
<path d="M198.141 5H202.568L206.411 12.6624L210.254 5H214.678L208.508 16.6038V20.774H204.314V16.6038L198.141 5Z" fill="white" fill-opacity="0.9"/>
<path d="M113.544 42.774H109L115.174 27H119.831L126.002 42.774H121.461L120.421 39.9543H114.59L113.544 42.774ZM115.638 37.0272H119.364L117.501 31.7325L115.638 37.0272Z" fill="white" fill-opacity="0.9"/>
<path d="M127.937 27H137.72C139.349 27 140.533 27.3565 141.272 28.0694C142.011 28.7824 142.379 29.9281 142.378 31.5065V33.5351C142.378 34.7809 142.164 35.7502 141.737 36.4429C141.512 36.7949 141.216 37.0987 140.865 37.3357C140.515 37.5727 140.118 37.7379 139.7 37.821L142.611 42.7823H138.084L135.406 38.0498H132.13V42.774H127.937V27ZM138.193 31.5065C138.193 30.6042 137.726 30.1541 136.794 30.1559H132.13V34.8856H136.788C137.719 34.8856 138.185 34.4354 138.187 33.5351L138.193 31.5065Z" fill="white" fill-opacity="0.9"/>
<path d="M153.628 42.774H149.434V30.1559H144.545V27H158.519V30.1559H153.628V42.774Z" fill="white" fill-opacity="0.9"/>
<path d="M168.721 42.774H160.337V39.6181H162.434V30.1559H160.337V27H168.721V30.1559H166.624V39.6181H168.721V42.774Z" fill="white" fill-opacity="0.9"/>
<path d="M170.581 39.5051C174.837 39.7311 177.718 39.8441 179.225 39.8441C179.38 39.8557 179.537 39.8345 179.684 39.7819C179.831 39.7294 179.964 39.6467 180.074 39.5395C180.185 39.4324 180.27 39.3034 180.324 39.1613C180.378 39.0193 180.399 38.8677 180.387 38.7168V36.691H175.031C173.401 36.691 172.217 36.3336 171.478 35.6188C170.74 34.904 170.371 33.7583 170.373 32.1817V31.5065C170.373 29.9299 170.741 28.7842 171.478 28.0694C172.215 27.3546 173.4 26.9982 175.031 27H183.207V30.1559H175.974C175.043 30.1559 174.577 30.6061 174.575 31.5065V31.9612C174.575 32.8635 175.041 33.3136 175.974 33.3118H180.168C181.687 33.3118 182.805 33.6573 183.521 34.3482C184.237 35.0391 184.594 36.1213 184.592 37.595V38.7196C184.592 40.1896 184.235 41.2718 183.521 41.9664C182.807 42.661 181.689 43.0064 180.168 43.0028C179.376 43.0028 178.535 42.9862 177.652 42.9559L175.507 42.8677C173.923 42.7905 172.285 42.6849 170.592 42.5507L170.581 39.5051Z" fill="white" fill-opacity="0.9"/>
<path d="M194.208 42.774H190.025V30.1559H185.134V27H199.11V30.1559H194.208V42.774Z" fill="white" fill-opacity="0.9"/>
</svg>
