<svg width="72" height="36" viewBox="0 0 72 36" fill="none" xmlns="http://www.w3.org/2000/svg">
<path d="M70.8484 19.0981H67.0825V20.8191H70.8484V19.0981Z" fill="#B3EF67"/>
<path d="M66.2775 23.5345H70.0433L70.8477 21.8145H67.0828L66.2775 23.5345Z" fill="#B3EF67"/>
<path d="M11.6744 7.20679H7.06726V9.68019H9.83063L10.3586 11.9265L11.3178 11.0475L10.5088 9.68019H11.6744V7.20679Z" fill="#B3EF67"/>
<path d="M60.8792 7.20679H65.4864V9.68019H62.723L62.195 11.9265L61.2358 11.0475L62.0448 9.68019H60.8792V7.20679Z" fill="#B3EF67"/>
<path d="M30.6956 7.4264H41.3013L42.1803 9.52034L59.5446 10.3716L53.8004 0.650635H18.1854L12.5684 10.3716L29.9096 9.52219L30.6956 7.4264Z" fill="#B3EF67"/>
<path d="M30.3759 10.3716H41.7371L40.811 8.16504H31.2061L30.3759 10.3716Z" fill="#B3EF67"/>
<path d="M6.74807 30.2254L29.2724 30.2198L29.2733 28.8867H42.7262L42.7197 30.2162L65.2348 30.2106L69.114 26.1289H65.3417L63.5772 27.848L8.40572 27.8637L6.64671 26.1289H2.88544L6.74807 30.2254Z" fill="#B3EF67"/>
<path d="M1.1516 20.8357H4.91748V19.1147H1.1516V20.8357Z" fill="#B3EF67"/>
<path d="M5.72251 23.5096H1.95663L1.15222 21.7896H4.91718L5.72251 23.5096Z" fill="#B3EF67"/>
<path d="M42.7201 35.3494H61.8775H63.7296L64.9975 34.1095V33.0413V31.2871H61.8775V33.0413H42.7201" fill="#B3EF67"/>
<path d="M29.2563 33.0413H10.121V31.2871H7.00293V33.0413V34.079L8.24041 35.3494H10.121H29.2563" fill="#B3EF67"/>
<path d="M41.9684 29.6455H30.0322V35.3494H41.9684V29.6455Z" fill="#B3EF67"/>
<path d="M64.3579 16.804H7.64215L6.50787 17.9534L7.64215 24.7726L8.91004 26.0125H63.09L64.3579 24.7726L65.4922 17.9534L64.3579 16.804ZM15.1214 17.9469H56.8999V18.6855H15.1214V17.9469ZM55.6873 21.0398V21.7785H36.9823V22.5863H56.1176V23.3249H15.9129V22.5863H35.0353V21.7785H16.3156V21.0398H35.0353V20.232H15.9129V19.4934H56.1176V20.232H36.986V21.0398H55.6873ZM11.7582 24.779C11.093 24.779 10.4427 24.5814 9.88967 24.2111C9.33659 23.8408 8.90552 23.3145 8.65097 22.6987C8.39642 22.083 8.32981 21.4054 8.45958 20.7517C8.58935 20.098 8.90967 19.4976 9.38002 19.0263C9.85038 18.555 10.4496 18.234 11.102 18.104C11.7544 17.974 12.4307 18.0407 13.0452 18.2958C13.6598 18.5508 14.185 18.9828 14.5546 19.5369C14.9241 20.0911 15.1214 20.7426 15.1214 21.4091C15.1214 22.3029 14.7671 23.16 14.1363 23.792C13.5056 24.424 12.6502 24.779 11.7582 24.779ZM56.8999 24.8714H15.1214V24.1327H56.8999V24.8714ZM60.2631 24.779C59.5979 24.779 58.9477 24.5814 58.3946 24.2111C57.8415 23.8408 57.4104 23.3145 57.1559 22.6987C56.9013 22.083 56.8347 21.4054 56.9645 20.7517C57.0943 20.098 57.4146 19.4976 57.8849 19.0263C58.3553 18.555 58.9546 18.234 59.607 18.104C60.2594 17.974 60.9356 18.0407 61.5501 18.2958C62.1647 18.5508 62.69 18.9828 63.0595 19.5369C63.4291 20.0911 63.6263 20.7426 63.6263 21.4091C63.6263 22.3029 63.272 23.16 62.6413 23.792C62.0105 24.424 61.1551 24.779 60.2631 24.779Z" fill="#B3EF67"/>
</svg>
