<svg width="138" height="25" viewBox="0 0 138 25" fill="none" xmlns="http://www.w3.org/2000/svg">
<path d="M28.8777 0H9.56279C4.27958 0 0 4.31298 0 9.6374V21.5267V25L4.35533 21.5267H19.3149C24.5981 21.5267 28.8777 17.2137 28.8777 11.8893V0Z" fill="white" fill-opacity="0.6"/>
<path d="M9.79016 4.3894C6.79824 4.3894 4.35547 6.85124 4.35547 9.86651V17.1566H6.53313V14.2558C7.44207 14.9428 8.57824 15.3627 9.79016 15.3627C12.7821 15.3627 15.2249 12.9009 15.2249 9.88559C15.2249 6.83215 12.7821 4.3894 9.79016 4.3894ZM9.79016 13.1489C7.99122 13.1489 6.53313 11.6795 6.53313 9.86651C6.53313 8.05353 7.99122 6.58406 9.79016 6.58406C11.5891 6.58406 13.0472 8.05353 13.0472 9.86651C13.0472 11.6795 11.5891 13.1489 9.79016 13.1489Z" fill="#020202"/>
<path d="M20.8676 9.04581V8.32062V6.6794C20.8676 6.37406 20.9812 6.2023 21.6061 6.2023H22.4014V4.37024H20.6404C19.4853 4.37024 18.7846 5.15268 18.7846 6.48856V8.30154V8.79772C18.7846 9.79009 18.2734 9.79009 18.1219 9.79009H17.3265V11.7176H18.1219C18.2923 11.7176 18.7846 11.7176 18.7846 12.6909V14.9618C18.7846 16.2977 19.4853 17.0802 20.6404 17.0802H22.4014V15.2481H21.6061C21.0002 15.2481 20.8676 15.0573 20.8676 14.771V12.4428C20.8676 12.1374 20.8676 11.2405 19.9776 10.7061C20.7729 10.2672 20.8676 9.40841 20.8676 9.04581Z" fill="#020202"/>
<path d="M42.5216 20.0835C42.5216 20.2286 42.3983 20.3253 42.275 20.3253H39.514C39.3661 20.3253 39.2675 20.2044 39.2675 20.0835V4.68185C39.2675 4.53678 39.3907 4.44006 39.514 4.44006H44.4444C48.2655 4.44006 50.1638 7.14805 50.1638 9.83185C50.1638 12.5157 48.2655 15.1269 44.4691 15.1269H42.5216V20.0835ZM46.8357 9.80767C46.8357 8.69546 45.9975 7.26894 44.4444 7.26894H42.5216V12.2013H44.4444C46.0222 12.2013 46.8357 10.8715 46.8357 9.80767Z" fill="white" fill-opacity="0.6"/>
<path d="M59.5561 19.4074C58.8165 20.0118 57.6825 20.5438 56.3759 20.4712C53.7875 20.3262 51.692 18.6095 51.692 15.6839V9.13155C51.692 8.98648 51.8153 8.88977 51.9385 8.88977H54.5763C54.7242 8.88977 54.8229 9.01066 54.8229 9.13155V15.563C54.8229 17.1104 56.0062 17.9567 57.362 17.9567C58.003 17.9567 58.7179 17.7874 59.3342 17.3764V9.13155C59.3342 8.98648 59.4575 8.88977 59.5807 8.88977H62.2185C62.3665 8.88977 62.4651 9.01066 62.4651 9.13155V20.0118C62.4651 20.0844 62.4158 20.1569 62.3665 20.2053C62.3171 20.2536 62.2185 20.2778 62.1446 20.2536L59.5561 19.4074Z" fill="white" fill-opacity="0.6"/>
<path d="M68.9977 13.2181C71.0192 13.5566 73.1393 14.6446 73.1393 16.9416C73.1393 19.6495 70.5015 20.6409 68.5786 20.6409C67.0995 20.6409 65.5218 20.0847 64.2645 18.5615C64.1906 18.4648 64.1906 18.3197 64.2892 18.223L65.645 16.8207C65.6943 16.7723 65.7683 16.7481 65.8176 16.7481C65.8669 16.7481 65.9655 16.7723 66.0148 16.8207C66.7297 17.546 67.7158 17.9329 68.6526 17.957C69.2689 17.9812 70.0578 17.546 70.0578 16.9416C70.0578 16.0953 69.1457 15.9986 68.554 15.8777C66.6311 15.5392 64.6589 14.3786 64.6343 12.1542C64.6343 9.80892 66.779 8.52747 69.0224 8.52747C70.1564 8.52747 71.4876 8.89014 72.7942 10.1474C72.8435 10.1958 72.8681 10.2683 72.8681 10.3167C72.8681 10.3892 72.8435 10.4376 72.7942 10.4859L71.4383 11.8399C71.3397 11.9366 71.2164 11.9366 71.1178 11.8641C70.3536 11.3563 69.614 11.1387 68.9977 11.1387C68.4554 11.1387 67.6172 11.5256 67.6172 12.2509C67.6172 12.6378 68.0117 12.9521 68.4061 13.073C68.5787 13.1455 68.7759 13.1697 68.9977 13.2181Z" fill="white" fill-opacity="0.6"/>
<path d="M77.7248 4.49011C77.8727 4.49011 77.9713 4.611 77.9713 4.7319V9.30161C78.8341 8.74551 79.9681 8.60044 80.9789 8.69715C83.5674 8.93894 85.4902 10.9457 85.4902 13.823V20.0852C85.4902 20.2303 85.367 20.327 85.2437 20.327H82.6059C82.458 20.327 82.3594 20.2061 82.3594 20.0852V13.8472C82.3594 11.6953 79.9435 10.5831 78.0206 11.8403V20.1094C78.0206 20.2544 77.8973 20.3511 77.7741 20.3511H75.1363C74.9884 20.3511 74.8898 20.2303 74.8898 20.1094V4.7319C74.8898 4.58683 75.013 4.49011 75.1363 4.49011H77.7248Z" fill="white" fill-opacity="0.6"/>
<path d="M91.2593 4.41627C91.4072 4.41627 91.5058 4.53716 91.5058 4.65805V10.6301L96.954 4.4888C97.0033 4.44045 97.0772 4.39209 97.1512 4.39209H100.479C100.578 4.39209 100.676 4.44045 100.701 4.53716C100.75 4.63387 100.726 4.73059 100.676 4.80312L94.8092 11.694L100.775 19.8905C100.824 19.963 100.849 20.0597 100.8 20.1564C100.75 20.229 100.676 20.3015 100.578 20.3015H97.3237C97.2498 20.3015 97.1758 20.2531 97.1265 20.2048L92.4179 13.9667L91.5058 14.8613V20.0839C91.5058 20.2289 91.3825 20.3257 91.2593 20.3257H88.4243C88.2763 20.3257 88.1777 20.2048 88.1777 20.0839V4.68223C88.1777 4.53716 88.301 4.44045 88.4243 4.44045H91.2593V4.41627Z" fill="white" fill-opacity="0.6"/>
<path d="M111.079 18.222C111.129 18.2703 111.153 18.3428 111.178 18.3912C111.203 18.4396 111.153 18.5363 111.104 18.5846C109.748 19.9628 108.269 20.5431 106.617 20.5431C102.624 20.5431 100.627 17.5208 100.651 14.5468C100.651 11.5729 102.722 8.62312 106.593 8.59895C110.019 8.57477 112.411 10.8475 112.361 14.2567C112.361 14.6194 112.287 15.2238 112.041 15.8041H103.807C104.325 18.0043 107.406 18.5121 109.354 17.013C109.452 16.9405 109.6 16.9405 109.674 17.013L111.079 18.222ZM109.28 13.4346C109.033 11.8389 107.801 11.2827 106.593 11.2827C105.36 11.2827 104.029 11.8872 103.782 13.4346H109.28Z" fill="white" fill-opacity="0.6"/>
<path d="M124.022 18.222C124.072 18.2703 124.096 18.3428 124.121 18.3912C124.146 18.4396 124.096 18.5363 124.047 18.5846C122.691 19.9628 121.212 20.5431 119.56 20.5431C115.567 20.5431 113.57 17.5208 113.595 14.5468C113.595 11.5729 115.665 8.62312 119.536 8.59895C122.962 8.57477 125.354 10.8475 125.304 14.2567C125.304 14.6194 125.23 15.2238 124.984 15.8041H116.75C117.268 18.0043 120.349 18.5121 122.297 17.013C122.395 16.9405 122.543 16.9405 122.617 17.013L124.022 18.222ZM122.248 13.4346C122.001 11.8389 120.768 11.2827 119.56 11.2827C118.328 11.2827 116.997 11.8872 116.75 13.4346H122.248Z" fill="white" fill-opacity="0.6"/>
<path d="M130.21 9.88057C130.9 9.13104 132.009 8.64747 133.316 8.69583C135.905 8.8409 138 10.751 138 13.7008V20.0839C138 20.2289 137.877 20.3256 137.753 20.3256H135.116C134.968 20.3256 134.869 20.2047 134.869 20.0839V13.8458C134.869 11.5489 132.256 10.5817 130.358 11.839V20.108C130.358 20.2531 130.235 20.3498 130.111 20.3498H127.424C127.276 20.3498 127.178 20.2289 127.178 20.108V9.22775C127.178 9.15522 127.227 9.0585 127.276 9.03433C127.326 9.01015 127.424 8.98597 127.498 9.01015L130.21 9.88057Z" fill="white" fill-opacity="0.6"/>
</svg>
