<svg width="123" height="28" viewBox="0 0 123 28" fill="none" xmlns="http://www.w3.org/2000/svg">
<path d="M46.8222 14.4497H44.4248V15.5453H46.8222V14.4497Z" fill="white" fill-opacity="0.9"/>
<path d="M43.9121 17.2742H46.3095L46.8216 16.1792H44.4248L43.9121 17.2742Z" fill="white" fill-opacity="0.9"/>
<path d="M9.15073 6.87964H6.21777V8.45423H7.97696L8.31308 9.88424L8.92372 9.32469L8.40869 8.45423H9.15073V6.87964Z" fill="white" fill-opacity="0.9"/>
<path d="M40.4753 6.87964H43.4083V8.45423H41.6491L41.313 9.88424L40.7024 9.32469L41.2174 8.45423H40.4753V6.87964Z" fill="white" fill-opacity="0.9"/>
<path d="M21.2597 7.01958H28.0114L28.571 8.35261L39.6253 8.89452L35.9685 2.70605H13.2956L9.71973 8.89452L20.7594 8.35378L21.2597 7.01958Z" fill="white" fill-opacity="0.9"/>
<path d="M21.0566 8.89448H28.2893L27.6998 7.48975H21.5852L21.0566 8.89448Z" fill="white" fill-opacity="0.9"/>
<path d="M6.01466 21.5336L20.3539 21.5301L20.3545 20.6814H28.9187L28.9146 21.5278L43.248 21.5242L45.7175 18.9258H43.316L42.1927 20.0202L7.06993 20.0302L5.95013 18.9258H3.55566L6.01466 21.5336Z" fill="white" fill-opacity="0.9"/>
<path d="M2.45221 15.5562H4.84961V14.4606H2.45221V15.5562Z" fill="white" fill-opacity="0.9"/>
<path d="M5.36164 17.2581H2.96424L2.45215 16.1631H4.84896L5.36164 17.2581Z" fill="white" fill-opacity="0.9"/>
<path d="M28.9148 24.7956H41.1106H42.2897L43.0968 24.0062V23.3262V22.2095H41.1106V23.3262H28.9148" fill="white" fill-opacity="0.9"/>
<path d="M20.3435 23.3262H8.16178V22.2095H6.17676V23.3262V23.9868L6.96455 24.7956H8.16178H20.3435" fill="white" fill-opacity="0.9"/>
<path d="M28.4366 21.1646H20.8379V24.7957H28.4366V21.1646Z" fill="white" fill-opacity="0.9"/>
<path d="M42.6893 12.9893H6.58342L5.86133 13.721L6.58342 18.0622L7.39057 18.8515H41.8822L42.6893 18.0622L43.4114 13.721L42.6893 12.9893ZM11.3448 13.7169H37.9414V14.1871H11.3448V13.7169ZM37.1695 15.6859V16.1561H25.2617V16.6704H37.4434V17.1406H11.8487V16.6704H24.0222V16.1561H12.105V15.6859H24.0222V15.1716H11.8487V14.7014H37.4434V15.1716H25.264V15.6859H37.1695ZM9.20373 18.0663C8.78027 18.0663 8.36631 17.9405 8.01422 17.7047C7.66212 17.469 7.3877 17.1339 7.22565 16.7419C7.06359 16.3499 7.02119 15.9186 7.10381 15.5024C7.18642 15.0863 7.39034 14.704 7.68977 14.404C7.9892 14.104 8.3707 13.8997 8.78603 13.8169C9.20135 13.7341 9.63185 13.7766 10.0231 13.939C10.4143 14.1013 10.7487 14.3763 10.984 14.7291C11.2192 15.0819 11.3448 15.4967 11.3448 15.921C11.3448 16.4899 11.1192 17.0356 10.7177 17.4379C10.3162 17.8403 9.77157 18.0663 9.20373 18.0663V18.0663ZM37.9414 18.1251H11.3448V17.6548H37.9414V18.1251ZM40.0825 18.0663C39.659 18.0663 39.2451 17.9405 38.893 17.7047C38.5409 17.469 38.2665 17.1339 38.1044 16.7419C37.9424 16.3499 37.9 15.9186 37.9826 15.5024C38.0652 15.0863 38.2691 14.704 38.5685 14.404C38.868 14.104 39.2495 13.8997 39.6648 13.8169C40.0801 13.7341 40.5106 13.7766 40.9018 13.939C41.2931 14.1013 41.6275 14.3763 41.8627 14.7291C42.098 15.0819 42.2236 15.4967 42.2236 15.921C42.2236 16.4899 41.998 17.0356 41.5965 17.4379C41.1949 17.8403 40.6503 18.0663 40.0825 18.0663V18.0663Z" fill="white" fill-opacity="0.9"/>
<path d="M61.4246 11.9025H58.8896L55.6871 6.47951V11.9025H53.2844V2.86475H55.8193L59.0235 8.28769V2.86475H61.4246V11.9025Z" fill="white" fill-opacity="0.9"/>
<path d="M70.0621 11.9025H62.6565V2.86475H70.0621V4.67292H65.0592V6.41003H68.9946V8.22294H65.0592V10.0943H70.0621V11.9025Z" fill="white" fill-opacity="0.9"/>
<path d="M78.8069 2.86475L80.4081 8.67459L81.8086 2.86475H84.4105L81.8756 11.9025H79.3406L77.7394 6.28685L76.1365 11.9025H73.6016L71.0667 2.86475H73.6685L75.069 8.67459L76.6719 2.86475H78.8069Z" fill="white" fill-opacity="0.9"/>
<path d="M97.6993 11.773C95.7156 11.9404 94.0697 12.0267 92.7617 12.0319C91.8912 12.0319 91.2508 11.834 90.8405 11.4382C90.4303 11.0423 90.2257 10.4222 90.2268 9.57789V5.44673C90.2268 4.54343 90.4379 3.88701 90.8601 3.47748C91.2823 3.06794 91.9608 2.8637 92.8956 2.86475H97.6993V4.67292H93.4375C92.9043 4.67292 92.6371 4.93086 92.636 5.44673V9.57789C92.6309 9.66467 92.6444 9.75153 92.6756 9.83305C92.7067 9.91457 92.755 9.98899 92.8172 10.0516C92.8774 10.1087 92.949 10.1534 93.0275 10.183C93.1061 10.2126 93.19 10.2265 93.2743 10.2238C93.4603 10.2238 93.666 10.2238 93.888 10.2238L94.5817 10.2048L95.3097 10.178C95.5545 10.1696 95.8701 10.1527 96.2564 10.1274C96.6427 10.1022 97.1253 10.0716 97.7043 10.0359L97.6993 11.773Z" fill="white" fill-opacity="0.9"/>
<path d="M103.534 11.9022H98.7297V10.094H99.9311V4.67267H98.7297V2.8645H103.534V4.67267H102.332V10.094H103.534V11.9022Z" fill="white" fill-opacity="0.9"/>
<path d="M109.745 11.9022H107.342V4.67267H104.538V2.8645H112.544V4.67267H109.745V11.9022Z" fill="white" fill-opacity="0.9"/>
<path d="M113.525 2.86475H116.061L118.263 7.25489L120.465 2.86475H123L119.464 9.51314V11.9025H117.062V9.51314L113.525 2.86475Z" fill="white" fill-opacity="0.9"/>
<path d="M65.0556 24.5069H62.4521L65.9893 15.4692H68.658L72.1935 24.5069H69.5917L68.9959 22.8914H65.6547L65.0556 24.5069ZM66.2553 21.2143H68.3904L67.3228 18.1807L66.2553 21.2143Z" fill="white" fill-opacity="0.9"/>
<path d="M73.3018 15.4692H78.907C79.8406 15.4692 80.5191 15.6735 80.9424 16.082C81.3657 16.4904 81.5768 17.1469 81.5757 18.0512V19.2135C81.5757 19.9273 81.4533 20.4826 81.2085 20.8795C81.0799 21.0812 80.91 21.2553 80.7093 21.3911C80.5086 21.5269 80.2813 21.6215 80.0414 21.6691L81.7096 24.5117H79.1159L77.5816 21.8002H75.7045V24.5069H73.3018V15.4692ZM79.1779 18.0512C79.1779 17.5343 78.9108 17.2764 78.3765 17.2774H75.7045V19.9873H78.3732C78.9064 19.9873 79.1736 19.7294 79.1747 19.2135L79.1779 18.0512Z" fill="white" fill-opacity="0.9"/>
<path d="M88.0208 24.5069H85.6181V17.2774H82.8171V15.4692H90.8234V17.2774H88.0208V24.5069Z" fill="white" fill-opacity="0.9"/>
<path d="M96.67 24.5069H91.8662V22.6988H93.0676V17.2774H91.8662V15.4692H96.67V17.2774H95.4686V22.6988H96.67V24.5069Z" fill="white" fill-opacity="0.9"/>
<path d="M97.7346 22.634C100.173 22.7635 101.824 22.8283 102.687 22.8283C102.776 22.8349 102.866 22.8228 102.95 22.7927C103.034 22.7625 103.11 22.7151 103.174 22.6538C103.237 22.5924 103.286 22.5185 103.317 22.4371C103.348 22.3557 103.36 22.2688 103.353 22.1824V21.0217H100.284C99.3506 21.0217 98.6721 20.8169 98.2488 20.4074C97.8255 19.9978 97.6144 19.3414 97.6155 18.4381V18.0512C97.6155 17.1479 97.8266 16.4915 98.2488 16.082C98.671 15.6724 99.3495 15.4682 100.284 15.4692H104.969V17.2774H100.825C100.291 17.2774 100.024 17.5353 100.023 18.0512V18.3118C100.023 18.8287 100.29 19.0866 100.825 19.0856H103.227C104.098 19.0856 104.738 19.2835 105.148 19.6794C105.559 20.0752 105.763 20.6953 105.762 21.5396V22.184C105.762 23.0262 105.558 23.6463 105.148 24.0442C104.739 24.4422 104.099 24.6401 103.227 24.638C102.773 24.638 102.292 24.6285 101.786 24.6112L100.557 24.5606C99.6493 24.5164 98.7107 24.4559 97.7412 24.379L97.7346 22.634Z" fill="white" fill-opacity="0.9"/>
<path d="M111.272 24.5069H108.876V17.2774H106.073V15.4692H114.081V17.2774H111.272V24.5069Z" fill="white" fill-opacity="0.9"/>
</svg>
