<svg width="83" height="27" viewBox="0 0 83 27" fill="none" xmlns="http://www.w3.org/2000/svg">
<path d="M10.34 11.3225H7.35359L3.58066 4.93365V11.3225H0.75V0.675049H3.73642L7.51127 7.06389V0.675049H10.34V11.3225Z" fill="#FD609B"/>
<path d="M20.5167 11.3225H11.792V0.675049H20.5167V2.80528H14.6227V4.85179H19.259V6.98761H14.6227V9.19226H20.5167V11.3225Z" fill="#FD609B"/>
<path d="M30.8181 0.675049L32.7046 7.5197L34.3545 0.675049H37.4198L34.4333 11.3225H31.4469L29.5605 4.70668L27.6721 11.3225H24.6856L21.6992 0.675049H24.7645L26.4144 7.5197L28.3028 0.675049H30.8181Z" fill="#FD609B"/>
<path d="M53.0769 11.1699C50.7399 11.3671 48.8008 11.4689 47.2599 11.4751C46.2343 11.4751 45.4798 11.2419 44.9965 10.7755C44.5132 10.3092 44.2722 9.57862 44.2734 8.58389V3.71691C44.2734 2.65273 44.5222 1.87939 45.0196 1.39691C45.517 0.914433 46.3163 0.673813 47.4175 0.675054H53.0769V2.80529H48.056C47.4278 2.80529 47.1131 3.10916 47.1118 3.71691V8.58389C47.1058 8.68612 47.1216 8.78846 47.1583 8.8845C47.1951 8.98054 47.2519 9.06821 47.3252 9.14203C47.3962 9.20929 47.4804 9.26194 47.573 9.29679C47.6655 9.33165 47.7644 9.34799 47.8637 9.34482C48.0829 9.34482 48.3252 9.34482 48.5867 9.34482L49.404 9.32249L50.2617 9.29087C50.5501 9.28094 50.9219 9.2611 51.377 9.23133C51.8321 9.20156 52.4007 9.1656 53.0827 9.12342L53.0769 11.1699Z" fill="#FD609B"/>
<path d="M59.9494 11.3225H54.29V9.19226H55.7054V2.80528H54.29V0.675049H59.9494V2.80528H58.5341V9.19226H59.9494V11.3225Z" fill="#FD609B"/>
<path d="M67.2665 11.3225H64.4358V2.80528H61.1321V0.675049H70.5644V2.80528H67.2665V11.3225Z" fill="#FD609B"/>
<path d="M71.7197 0.675049H74.7081L77.3022 5.84714L79.8963 0.675049H82.8827L78.7175 8.50761V11.3225H75.8869V8.50761L71.7197 0.675049Z" fill="#FD609B"/>
<path d="M14.6177 26.1726H11.5505L15.7177 15.5251H18.8618L23.027 26.1726H19.9617L19.2598 24.2693H15.3235L14.6177 26.1726ZM16.0311 22.2935H18.5464L17.2888 18.7196L16.0311 22.2935Z" fill="#FD609B"/>
<path d="M24.3325 15.5251H30.9361C32.0361 15.5251 32.8354 15.7658 33.3341 16.247C33.8328 16.7282 34.0815 17.5016 34.0802 18.567V19.9363C34.0802 20.7772 33.936 21.4315 33.6475 21.8991C33.496 22.1367 33.2959 22.3418 33.0595 22.5017C32.823 22.6617 32.5552 22.7732 32.2726 22.8293L34.2379 26.1782H31.1822L29.3746 22.9838H27.1632V26.1726H24.3325V15.5251ZM31.2553 18.567C31.2553 17.958 30.9406 17.6541 30.3111 17.6554H27.1632V20.8479H30.3073C30.9355 20.8479 31.2502 20.5441 31.2515 19.9363L31.2553 18.567Z" fill="#FD609B"/>
<path d="M41.674 26.1726H38.8433V17.6554H35.5435V15.5251H44.9758V17.6554H41.674V26.1726Z" fill="#FD609B"/>
<path d="M51.8623 26.1726H46.2029V24.0424H47.6182V17.6554H46.2029V15.5251H51.8623V17.6554H50.4469V24.0424H51.8623V26.1726Z" fill="#FD609B"/>
<path d="M53.1179 23.9661C55.9909 24.1186 57.9357 24.1949 58.9523 24.1949C59.0576 24.2028 59.1633 24.1885 59.2623 24.153C59.3613 24.1175 59.4512 24.0616 59.5258 23.9893C59.6004 23.917 59.6578 23.8299 59.6943 23.7341C59.7307 23.6382 59.7453 23.5358 59.7369 23.434V22.0665H56.1216C55.0217 22.0665 54.2224 21.8253 53.7237 21.3428C53.225 20.8603 52.9763 20.087 52.9775 19.0228V18.567C52.9775 17.5028 53.2262 16.7295 53.7237 16.247C54.2211 15.7645 55.0204 15.5239 56.1216 15.5252H61.6407V17.6554H56.7582C56.13 17.6554 55.8153 17.9593 55.814 18.567V18.874C55.814 19.483 56.1287 19.7869 56.7582 19.7856H59.5888C60.6144 19.7856 61.3689 20.0188 61.8522 20.4852C62.3355 20.9515 62.5765 21.6821 62.5752 22.6768V23.4358C62.5752 24.4281 62.3342 25.1586 61.8522 25.6275C61.3702 26.0963 60.6157 26.3295 59.5888 26.327C59.0542 26.327 58.4869 26.3159 57.8908 26.2954L56.4428 26.2359C55.3736 26.1838 54.2679 26.1124 53.1256 26.0219L53.1179 23.9661Z" fill="#FD609B"/>
<path d="M69.0652 26.1726H66.2422V17.6554H62.9404V15.5251H72.3747V17.6554H69.0652V26.1726Z" fill="#FD609B"/>
</svg>
