<svg width="54" height="27" viewBox="0 0 54 27" fill="none" xmlns="http://www.w3.org/2000/svg">
<path d="M53.1359 14.3237H50.3115V15.6144H53.1359V14.3237Z" fill="#0DAABD"/>
<path d="M49.708 17.6509H52.5324L53.1357 16.3608H50.312L49.708 17.6509Z" fill="#0DAABD"/>
<path d="M8.75614 5.40503H5.30078V7.26008H7.3733L7.76929 8.94479L8.48869 8.28558L7.88193 7.26008H8.75614V5.40503Z" fill="#0DAABD"/>
<path d="M45.6594 5.40503H49.1148V7.26008H47.0423L46.6463 8.94479L45.9269 8.28558L46.5336 7.26008H45.6594V5.40503Z" fill="#0DAABD"/>
<path d="M23.0212 5.56986H30.9755L31.6347 7.14032L44.658 7.77875L40.3498 0.488037H13.6386L9.42578 7.77875L22.4317 7.1417L23.0212 5.56986Z" fill="#0DAABD"/>
<path d="M22.7822 7.77871H31.3031L30.6086 6.12378H23.4049L22.7822 7.77871Z" fill="#0DAABD"/>
<path d="M5.06103 22.669L21.9543 22.6649L21.955 21.665H32.0446L32.0398 22.6621L48.9261 22.658L51.8355 19.5967H49.0063L47.6829 20.886L6.30427 20.8978L4.98502 19.5967H2.16406L5.06103 22.669Z" fill="#0DAABD"/>
<path d="M0.864068 15.627H3.68848V14.3362H0.864068V15.627Z" fill="#0DAABD"/>
<path d="M4.29197 17.6321H1.46756L0.864258 16.342H3.68798L4.29197 17.6321Z" fill="#0DAABD"/>
<path d="M32.04 26.5121H46.4081H47.7972L48.7481 25.5821V24.781V23.4653H46.4081V24.781H32.04" fill="#0DAABD"/>
<path d="M21.942 24.781H7.59054V23.4653H5.25195V24.781V25.5593L6.18006 26.5121H7.59054H21.942" fill="#0DAABD"/>
<path d="M31.4766 22.2341H22.5244V26.512H31.4766V22.2341Z" fill="#0DAABD"/>
<path d="M48.2684 12.603H5.73157L4.88086 13.4651L5.73157 18.5795L6.68248 19.5094H47.3175L48.2684 18.5795L49.1191 13.4651L48.2684 12.603ZM11.341 13.4603H42.6749V14.0142H11.341V13.4603ZM41.7654 15.7799V16.3339H27.7367V16.9398H42.0881V17.4937H11.9346V16.9398H26.2764V16.3339H12.2366V15.7799H26.2764V15.1741H11.9346V14.6201H42.0881V15.1741H27.7394V15.7799H41.7654ZM8.81858 18.5843C8.3197 18.5843 7.83202 18.4361 7.41721 18.1584C7.0024 17.8807 6.6791 17.4859 6.48818 17.0241C6.29727 16.5623 6.24731 16.0541 6.34464 15.5638C6.44197 15.0736 6.68221 14.6232 7.03497 14.2698C7.38774 13.9163 7.83719 13.6756 8.32649 13.5781C8.81579 13.4806 9.32296 13.5306 9.78387 13.7219C10.2448 13.9132 10.6387 14.2371 10.9159 14.6528C11.1931 15.0684 11.341 15.557 11.341 16.0569C11.341 16.7272 11.0752 17.3701 10.6022 17.8441C10.1292 18.3181 9.48757 18.5843 8.81858 18.5843ZM42.6749 18.6536H11.341V18.0996H42.6749V18.6536ZM45.1973 18.5843C44.6984 18.5843 44.2107 18.4361 43.7959 18.1584C43.3811 17.8807 43.0578 17.4859 42.8669 17.0241C42.676 16.5623 42.626 16.0541 42.7233 15.5638C42.8207 15.0736 43.0609 14.6232 43.4137 14.2698C43.7664 13.9163 44.2159 13.6756 44.7052 13.5781C45.1945 13.4806 45.7017 13.5306 46.1626 13.7219C46.6235 13.9132 47.0174 14.2371 47.2946 14.6528C47.5718 15.0684 47.7197 15.557 47.7197 16.0569C47.7197 16.7272 47.4539 17.3701 46.9809 17.8441C46.5078 18.3181 45.8663 18.5843 45.1973 18.5843Z" fill="#0DAABD"/>
</svg>
