<svg width="147" height="27" viewBox="0 0 147 27" fill="none" xmlns="http://www.w3.org/2000/svg">
<path d="M54.2251 14.325H51.3V15.675H54.2251V14.325Z" fill="#B3EF67"/>
<path d="M50.7 17.775H53.6249L54.2249 16.425H51.2999L50.7 17.775Z" fill="#B3EF67"/>
<path d="M8.17495 5.1001H4.57495V7.0501H6.74995L7.12495 8.77509L7.87495 8.1001L7.27495 7.0501H8.17495V5.1001V5.1001Z" fill="#B3EF67"/>
<path d="M46.5 5.1001H50.1V7.0501H47.925L47.55 8.77509L46.8 8.1001L47.4 7.0501H46.5V5.1001V5.1001Z" fill="#B3EF67"/>
<path d="M23.0251 5.25H31.2751L31.9501 6.9L45.4501 7.575L40.9501 0H13.2001L8.8501 7.575L22.3501 6.9L23.0251 5.25Z" fill="#B3EF67"/>
<path d="M22.7251 7.57509H31.5751L30.8251 5.8501H23.3251L22.7251 7.57509Z" fill="#B3EF67"/>
<path d="M4.35 23.025H21.9V21.975H32.4V23.025H49.95L52.95 19.875H50.025L48.675 21.225H5.775L4.425 19.875H1.5L4.35 23.025Z" fill="#B3EF67"/>
<path d="M0 15.675H2.925V14.325H0V15.675Z" fill="#B3EF67"/>
<path d="M3.525 17.775H0.600002L0 16.425H2.925L3.525 17.775Z" fill="#B3EF67"/>
<path d="M32.325 27.0001H47.2499H48.6749L49.6499 26.0251V25.2001V23.8501H47.2499V25.2001H32.325" fill="#B3EF67"/>
<path d="M21.9 25.2001H6.97495V23.8501H4.57495V25.2001V26.0251L5.54995 27.0001H7.04995H21.975" fill="#B3EF67"/>
<path d="M31.725 22.575H22.425V27H31.725V22.575Z" fill="#B3EF67"/>
<path d="M49.2 12.6001H5.09995L4.19995 13.5001L5.09995 18.8251L6.07495 19.8001H48.225L49.2 18.8251L50.1 13.5001L49.2 12.6001ZM10.875 13.4251H43.35V14.0251H10.875V13.4251ZM42.45 15.9001V16.5001H27.9V17.1001H42.825V17.7001H11.55V17.1001H26.4V16.5001H11.85V15.9001H26.4V15.3001H11.55V14.7001H42.825V15.3001H27.975V15.9001H42.45ZM8.24995 18.7501C7.72495 18.7501 7.19995 18.6001 6.82495 18.3001C6.44995 18.0001 6.07495 17.6251 5.84995 17.1001C5.62495 16.6501 5.62495 16.1251 5.69995 15.6001C5.77495 15.0751 6.07495 14.6251 6.44995 14.2501C6.82495 13.8751 7.27495 13.6501 7.79995 13.5001C8.32495 13.4251 8.84995 13.4251 9.29995 13.6501C9.74995 13.8751 10.2 14.1751 10.5 14.6251C10.8 15.0751 10.95 15.6001 10.95 16.0501C10.95 16.7251 10.65 17.4001 10.2 17.9251C9.59995 18.5251 8.92495 18.7501 8.24995 18.7501ZM43.35 18.8251H10.875V18.2251H43.35V18.8251ZM45.975 18.7501C45.45 18.7501 44.925 18.6001 44.55 18.3001C44.1 18.0001 43.8 17.6251 43.575 17.1001C43.35 16.6501 43.35 16.1251 43.425 15.6001C43.5 15.0751 43.8 14.6251 44.175 14.2501C44.55 13.8751 45 13.6501 45.525 13.5001C46.05 13.4251 46.575 13.4251 47.025 13.6501C47.475 13.8751 47.925 14.1751 48.225 14.6251C48.525 15.0751 48.675 15.6001 48.675 16.0501C48.675 16.7251 48.375 17.4001 47.925 17.9251C47.325 18.5251 46.725 18.7501 45.975 18.7501Z" fill="#B3EF67"/>
<path d="M71.7001 11.325H68.6251L64.7251 4.72505V11.325H61.8V0.300049H64.8751L68.7751 6.90005V0.300049H71.7001V11.325Z" fill="#B3EF67"/>
<path d="M82.2749 11.325H73.2V0.300049H82.2749V2.47505H76.1249V4.57505H80.9249V6.82505H76.1249V9.07505H82.2749V11.325Z" fill="#B3EF67"/>
<path d="M93.0001 0.300049L94.9501 7.42505L96.675 0.300049H99.8251L96.7501 11.325H93.675L91.7251 4.42505L89.7751 11.325H86.6251L83.55 0.300049H86.7001L88.425 7.42505L90.3751 0.300049H93.0001Z" fill="#B3EF67"/>
<path d="M116.1 11.175C113.7 11.4 111.675 11.475 110.1 11.475C109.05 11.475 108.225 11.25 107.775 10.725C107.25 10.275 107.025 9.45005 107.025 8.47505V3.45005C107.025 2.32505 107.25 1.57505 107.775 1.05005C108.3 0.525049 109.125 0.300049 110.25 0.300049H116.1V2.47505H110.925C110.25 2.47505 109.95 2.77505 109.95 3.45005V8.47505C109.95 8.55005 109.95 8.70005 110.025 8.77505C110.1 8.85005 110.1 9.00005 110.175 9.07505C110.25 9.15005 110.325 9.22505 110.4 9.22505C110.475 9.22505 110.625 9.30005 110.7 9.30005C110.925 9.30005 111.15 9.30005 111.45 9.30005H112.275H113.175C113.475 9.30005 113.85 9.30005 114.3 9.22505C114.75 9.22505 115.35 9.15005 116.1 9.15005V11.175Z" fill="#B3EF67"/>
<path d="M123.225 11.325H117.375V9.15H118.875V2.55H117.375V0.375H123.225V2.55H121.725V9.15H123.225V11.325Z" fill="#B3EF67"/>
<path d="M130.8 11.325H127.875V2.47505H124.425V0.300049H134.175V2.47505H130.725V11.325H130.8Z" fill="#B3EF67"/>
<path d="M135.45 0.300049H138.525L141.225 5.70005L143.925 0.300049H147L142.65 8.40005V11.325H139.725V8.40005L135.45 0.300049Z" fill="#B3EF67"/>
<path d="M82.3502 16.8001C81.7502 16.2001 80.8502 15.9001 79.7252 15.9001H73.6501V26.7751H79.7252C80.9252 26.7751 81.7502 26.4751 82.3502 25.8751C82.9502 25.2751 83.2501 24.3751 83.2501 23.1751V19.4251C83.2501 18.3001 82.9502 17.4001 82.3502 16.8001ZM80.4752 23.2501C80.4752 24.1501 80.0251 24.6751 79.0501 24.6751H76.4251V18.1501H79.0501C79.9501 18.1501 80.4752 18.6001 80.4752 19.5751V23.2501Z" fill="#B3EF67"/>
<path d="M93 23.4C93.6 23.25 94.05 22.95 94.35 22.425C94.65 21.975 94.8 21.3 94.8 20.4V18.975C94.8 17.85 94.575 17.1 94.05 16.575C93.525 16.05 92.775 15.825 91.65 15.825H85.125V26.7H87.9V23.4H90.075L91.875 26.7H94.875L93 23.4ZM91.95 20.4C91.95 21 91.65 21.3 91.05 21.3H87.9V18H91.05C91.65 18 91.95 18.3 91.95 18.9V20.4Z" fill="#B3EF67"/>
<path d="M101.775 26.7751H96.1501V24.6002H97.5752V18.0751H96.1501V15.9001H101.775V18.0751H100.35V24.6002H101.775V26.7751Z" fill="#B3EF67"/>
<path d="M108.075 23.5501L110.7 15.9001H113.775L109.65 26.7751H106.5L102.375 15.9001H105.45L108.075 23.5501Z" fill="#B3EF67"/>
<path d="M123.45 26.7751H114.825V15.9001H123.45V18.0751H117.675V20.1751H122.25V22.3502H117.675V24.6002H123.45V26.7751Z" fill="#B3EF67"/>
<path d="M132.9 23.4C133.5 23.25 133.95 22.95 134.25 22.425C134.55 21.975 134.7 21.3 134.7 20.4V18.975C134.7 17.85 134.475 17.1 133.95 16.575C133.425 16.05 132.675 15.825 131.55 15.825H125.025V26.7H127.8V23.4H129.975L131.775 26.7H134.775L132.9 23.4ZM131.85 20.4C131.85 21 131.55 21.3 130.95 21.3H127.8V18H130.95C131.55 18 131.85 18.3 131.85 18.9V20.4Z" fill="#B3EF67"/>
</svg>
