<svg width="153" height="28" viewBox="0 0 153 28" fill="none" xmlns="http://www.w3.org/2000/svg">
<path d="M56.1458 14.8555H53.1172V16.2555H56.1458V14.8555Z" fill="#E7E7E7"/>
<path d="M52.4961 18.4332H55.5247L56.1459 17.0332H53.1173L52.4961 18.4332Z" fill="#E7E7E7"/>
<path d="M8.4638 5.28882H4.73633V7.31104H6.98834L7.37662 9.09992L8.15318 8.39993L7.53193 7.31104H8.4638V5.28882Z" fill="#E7E7E7"/>
<path d="M48.1465 5.28882H51.874V7.31104H49.6219L49.2337 9.09992L48.4571 8.39993L49.0784 7.31104H48.1465V5.28882Z" fill="#E7E7E7"/>
<path d="M23.841 5.44444H32.3831L33.082 7.15555L47.06 7.85555L42.4007 0H13.6681L9.16406 7.85555L23.1421 7.15555L23.841 5.44444Z" fill="#E7E7E7"/>
<path d="M23.5293 7.85554H32.6927L31.9161 6.06665H24.1505L23.5293 7.85554Z" fill="#E7E7E7"/>
<path d="M4.50365 23.8777H22.6751V22.7889H33.5469V23.8777H51.7183L54.8245 20.6111H51.796L50.3981 22.0111H5.97911L4.58131 20.6111H1.55273L4.50365 23.8777Z" fill="#E7E7E7"/>
<path d="M0 16.2555H3.02857V14.8555H0V16.2555Z" fill="#E7E7E7"/>
<path d="M3.64981 18.4332H0.621248L0 17.0332H3.02857L3.64981 18.4332Z" fill="#E7E7E7"/>
<path d="M33.4688 28.0001H48.9222H50.3977L51.4072 26.9889V26.1334V24.7334H48.9222V26.1334H33.4688" fill="#E7E7E7"/>
<path d="M22.6748 26.1334H7.22131V24.7334H4.73633V26.1334V26.9889L5.74585 28.0001H7.29897H22.7524" fill="#E7E7E7"/>
<path d="M32.8481 23.4111H23.2188V28H32.8481V23.4111Z" fill="#E7E7E7"/>
<path d="M50.943 13.0667H5.28148L4.34961 14L5.28148 19.5222L6.291 20.5333H49.9335L50.943 19.5222L51.8749 14L50.943 13.0667ZM11.261 13.9222H44.8859V14.5444H11.261V13.9222ZM43.954 16.4889V17.1111H28.8888V17.7333H44.3423V18.3555H11.9599V17.7333H27.3357V17.1111H12.2705V16.4889H27.3357V15.8666H11.9599V15.2444H44.3423V15.8666H28.9665V16.4889H43.954ZM8.54302 19.4444C7.99943 19.4444 7.45584 19.2889 7.06756 18.9778C6.67928 18.6666 6.291 18.2778 6.05804 17.7333C5.82507 17.2667 5.82507 16.7222 5.90272 16.1778C5.98038 15.6333 6.291 15.1666 6.67928 14.7778C7.06756 14.3889 7.53349 14.1555 8.07708 14C8.62067 13.9222 9.16426 13.9222 9.6302 14.1555C10.0961 14.3889 10.5621 14.7 10.8727 15.1666C11.1833 15.6333 11.3386 16.1778 11.3386 16.6444C11.3386 17.3444 11.028 18.0444 10.5621 18.5889C9.94082 19.2111 9.24192 19.4444 8.54302 19.4444ZM44.8859 19.5222H11.261V18.9H44.8859V19.5222ZM47.6038 19.4444C47.0602 19.4444 46.5166 19.2889 46.1284 18.9778C45.6624 18.6666 45.3518 18.2778 45.1188 17.7333C44.8859 17.2667 44.8859 16.7222 44.9635 16.1778C45.0412 15.6333 45.3518 15.1666 45.7401 14.7778C46.1284 14.3889 46.5943 14.1555 47.1379 14C47.6815 13.9222 48.2251 13.9222 48.691 14.1555C49.1569 14.3889 49.6229 14.7 49.9335 15.1666C50.2441 15.6333 50.3994 16.1778 50.3994 16.6444C50.3994 17.3444 50.0888 18.0444 49.6229 18.5889C49.0016 19.2111 48.3804 19.4444 47.6038 19.4444Z" fill="#E7E7E7"/>
<path d="M74.1607 11.7444H70.9768L66.9387 4.89992V11.7444H63.9102V0.311035H67.094L71.1321 7.15548V0.311035H74.1607V11.7444Z" fill="#E7E7E7"/>
<path d="M85.1092 11.7444H75.7129V0.311035H85.1092V2.56659H78.7415V4.74437H83.7114V7.0777H78.7415V9.41103H85.1092V11.7444Z" fill="#E7E7E7"/>
<path d="M96.2143 0.311035L98.2334 7.69992L100.019 0.311035H103.281L100.097 11.7444H96.9132L94.8942 4.58881L92.8751 11.7444H89.6136L86.4297 0.311035H89.6912L91.4773 7.69992L93.4964 0.311035H96.2143Z" fill="#E7E7E7"/>
<path d="M120.133 11.5888C117.648 11.8221 115.551 11.8999 113.92 11.8999C112.833 11.8999 111.979 11.6666 111.513 11.1221C110.969 10.6555 110.736 9.79993 110.736 8.78881V3.5777C110.736 2.41103 110.969 1.63326 111.513 1.08881C112.056 0.544369 112.911 0.311035 114.076 0.311035H120.133V2.56659H114.774C114.076 2.56659 113.765 2.8777 113.765 3.5777V8.78881C113.765 8.86659 113.765 9.02214 113.843 9.09992C113.92 9.1777 113.92 9.33325 113.998 9.41103C114.076 9.48881 114.153 9.56659 114.231 9.56659C114.308 9.56659 114.464 9.64437 114.541 9.64437C114.774 9.64437 115.007 9.64437 115.318 9.64437H116.172H117.104C117.415 9.64437 117.803 9.64437 118.269 9.56659C118.735 9.56659 119.356 9.48881 120.133 9.48881V11.5888Z" fill="#E7E7E7"/>
<path d="M127.51 11.7445H121.453V9.48891H123.006V2.64447H121.453V0.388916H127.51V2.64447H125.957V9.48891H127.51V11.7445Z" fill="#E7E7E7"/>
<path d="M135.353 11.7444H132.324V2.56659H128.752V0.311035H138.847V2.56659H135.275V11.7444H135.353Z" fill="#E7E7E7"/>
<path d="M140.168 0.311035H143.352L146.147 5.91103L148.943 0.311035H152.127L147.623 8.71103V11.7444H144.594V8.71103L140.168 0.311035Z" fill="#E7E7E7"/>
<path d="M85.1878 17.4221C84.5665 16.7999 83.6346 16.4888 82.4698 16.4888H76.1797V27.7665H82.4698C83.7123 27.7665 84.5665 27.4554 85.1878 26.8332C85.809 26.211 86.1196 25.2777 86.1196 24.0332V20.1443C86.1196 18.9777 85.809 18.0443 85.1878 17.4221ZM83.2464 24.111C83.2464 25.0443 82.7804 25.5888 81.7709 25.5888H79.0529V18.8221H81.7709C82.7028 18.8221 83.2464 19.2888 83.2464 20.2999V24.111Z" fill="#E7E7E7"/>
<path d="M96.2144 24.2667C96.8356 24.1111 97.3016 23.8 97.6122 23.2556C97.9228 22.7889 98.0781 22.0889 98.0781 21.1556V19.6778C98.0781 18.5111 97.8452 17.7334 97.3016 17.1889C96.758 16.6445 95.9814 16.4111 94.8166 16.4111H88.0605V27.6889H90.9338V24.2667H93.1858L95.0496 27.6889H98.1558L96.2144 24.2667ZM95.1272 21.1556C95.1272 21.7778 94.8166 22.0889 94.1953 22.0889H90.9338V18.6667H94.1953C94.8166 18.6667 95.1272 18.9778 95.1272 19.6V21.1556Z" fill="#E7E7E7"/>
<path d="M105.301 27.7665H99.4766V25.511H100.952V18.7443H99.4766V16.4888H105.301V18.7443H103.825V25.511H105.301V27.7665Z" fill="#E7E7E7"/>
<path d="M111.824 24.4221L114.542 16.4888H117.726L113.454 27.7665H110.193L105.922 16.4888H109.106L111.824 24.4221Z" fill="#E7E7E7"/>
<path d="M127.743 27.7665H118.812V16.4888H127.743V18.7443H121.763V20.9221H126.5V23.1777H121.763V25.511H127.743V27.7665Z" fill="#E7E7E7"/>
<path d="M137.527 24.2667C138.148 24.1111 138.614 23.8 138.925 23.2556C139.235 22.7889 139.391 22.0889 139.391 21.1556V19.6778C139.391 18.5111 139.158 17.7334 138.614 17.1889C138.07 16.6445 137.294 16.4111 136.129 16.4111H129.373V27.6889H132.246V24.2667H134.498L136.362 27.6889H139.468L137.527 24.2667ZM136.44 21.1556C136.44 21.7778 136.129 22.0889 135.508 22.0889H132.246V18.6667H135.508C136.129 18.6667 136.44 18.9778 136.44 19.6V21.1556Z" fill="#E7E7E7"/>
</svg>
