<svg width="32" height="24" viewBox="0 0 32 24" fill="none" xmlns="http://www.w3.org/2000/svg">
<path d="M28.0249 5.99354C28.0383 6.25274 28.0433 6.51514 28.0433 6.77434C28.0433 14.7583 21.6788 23.9615 10.0411 23.9615C6.46574 23.9615 3.14186 22.9615 0.340942 21.2463C1.99765 21.4376 3.6776 21.3153 5.28476 20.8865C6.89193 20.4576 8.39481 19.7307 9.7075 18.7471C8.38736 18.7233 7.10802 18.3063 6.04834 17.5544C4.98866 16.8025 4.20161 15.7533 3.79725 14.5535C4.74607 14.7229 5.72259 14.6874 6.65515 14.4495C5.22304 14.1723 3.93536 13.431 3.01035 12.3512C2.08534 11.2714 1.57989 9.91958 1.57965 8.52474V8.44954C2.4583 8.9161 3.441 9.17556 4.44593 9.20634C3.10477 8.35287 2.15538 7.04301 1.79155 5.5441C1.42771 4.0452 1.67686 2.47026 2.48814 1.14074C4.07682 3.00707 6.05902 4.53354 8.30599 5.62098C10.553 6.70843 13.0145 7.33252 15.5306 7.45274C15.4217 7.00093 15.3672 6.53874 15.368 6.07514C15.368 5.28224 15.5316 4.49711 15.8496 3.76459C16.1675 3.03206 16.6335 2.3665 17.2209 1.80591C17.8084 1.24532 18.5057 0.800686 19.2732 0.497403C20.0407 0.194119 20.8633 0.0381279 21.6939 0.0383381C22.5596 0.0369905 23.4164 0.205442 24.211 0.533243C25.0057 0.861044 25.7213 1.3412 26.3135 1.94394C27.7301 1.67626 29.0887 1.18066 30.3313 0.478338C29.8587 1.87706 28.8699 3.06429 27.5489 3.81914C28.8031 3.67721 30.028 3.35686 31.1829 2.86874C30.3345 4.08224 29.2649 5.1406 28.0249 5.99354V5.99354Z" fill="white"/>
</svg>
